<svg viewBox="0 0 50 50" class="fill-current">
    <path d="M 19.265625 3 C 17.510922 3 15.879726 3.9224619 14.976562 5.4277344 L 13.433594 8 L 5.8183594 8 C 2.6180531 8 1.1842379e-15 10.618053 0 13.818359 L 0 36.183594 C 0 39.383104 2.6180531 42 5.8183594 42 L 44.183594 42 C 47.383104 42 50 39.381947 50 36.181641 L 50 13.818359 C 50 10.618053 47.381947 8 44.181641 8 L 36.566406 8 L 35.019531 5.421875 C 34.118597 3.9211502 32.492938 3 30.742188 3 L 19.265625 3 z M 25 12 C 32.168 12 38 17.832 38 25 C 38 32.168 32.168 38 25 38 C 17.832 38 12 32.168 12 25 C 12 17.832 17.832 12 25 12 z M 25 14 C 18.935 14 14 18.935 14 25 C 14 31.065 18.935 36 25 36 C 31.065 36 36 31.065 36 25 C 36 18.935 31.065 14 25 14 z M 25 16.5 C 29.687 16.5 33.5 20.313 33.5 25 C 33.5 29.687 29.687 33.5 25 33.5 C 20.313 33.5 16.5 29.687 16.5 25 C 16.5 20.313 20.313 16.5 25 16.5 z M 25 18.5 A 6.5 6.5 0 0 0 25 31.5 A 6.5 6.5 0 0 0 25 18.5 z" fill="#000000" />
</svg>