<svg class="fill-current" viewBox="0 0 48 48">
    <path fill="#F9F3F3" d="M5.995,24c0,0,8.06-11,18.004-11s17.996,11,17.996,11S33.944,35,24,35S5.995,24,5.995,24z" />
    <path d="M24,13c9.945,0,17.996,11,17.996,11S33.944,35,24,35S5.995,24,5.995,24S14.055,13,24,13 M24,11C13.165,11,4.735,22.335,4.382,22.818L3.516,24l0.866,1.182C4.735,25.665,13.165,37,24,37s19.256-11.336,19.61-11.818L44.474,24l-0.864-1.181C43.256,22.336,34.834,11,24,11L24,11z" />
    <path d="M15,23.953c0-4.971,4.034-8.994,9-8.994c4.967,0,9,4.023,9,8.994c0,4.977-4.033,9.006-9,9.006C19.034,32.959,15,28.93,15,23.953z" />
    <path d="M20,23.958c0-2.213,1.786-3.999,4-3.999c2.203,0,4,1.786,4,3.999c0,2.22-1.797,4.001-4,4.001C21.786,27.959,20,26.178,20,23.958z" />
    <path d="M21.586 -3.284H25.586V50.456H21.586z" transform="rotate(-45.001 23.586 23.586)" />
</svg>