<svg viewBox="0 0 48 48">
    <path fill="#b3e5fc" d="M39,31C39,18.995,24,2,24,2S9,19.181,9,31c0,8.284,6.716,15,15,15S39,39.284,39,31z" />
    <path fill="#cff3ff" d="M24 13L19 18 17 28 19 36 29 18z" />
    <path fill="#81d4fa" d="M24 2L21 11 24 13 27 11z" />
    <path fill="#4fc3f7" d="M19 18L24 13 21 11z" />
    <path fill="#cff3ff" d="M24,2c0,0-2.526,2.895-5.504,7.122L21,11L24,2z" />
    <path fill="#81d4fa" d="M21 11l-2.448-1.958 0 0c-1.429 2.024-2.963 4.36-4.377 6.833L21 11zM14 16.183c-1.027 1.818-1.982 3.704-2.778 5.595L14 24V16.183z" />
    <path fill="#4fc3f7" d="M27 11L24 13 29 18zM19 18L14 24 17 28z" />
    <path fill="#cff3ff" d="M14,24l-2.778-2.222l0,0c-1.009,2.399-1.76,4.8-2.067,7.067L14,24z" />
    <path fill="#81d4fa" d="M17 28L14 34 19 36z" />
    <path fill="#4fc3f7" d="M10.015,36.391L14,34l-4.875-4.875C9.049,29.761,9,30.389,9,31C9,32.903,9.369,34.716,10.015,36.391z" />
    <path fill="#81d4fa" d="M14,42.158V34l-3.985,2.391C10.876,38.622,12.251,40.589,14,42.158z" />
    <path fill="#03a9f4" d="M14 34L14 42.158 20 41 19 36z" />
    <path fill="#b3e5fc" d="M17.809,44.652L20,41l-6,1.158C15.13,43.171,16.41,44.016,17.809,44.652z" />
    <path fill="#81d4fa" d="M19 36L24 38 20 41z" />
    <path fill="#4fc3f7" d="M17.809,44.652C19.698,45.51,21.79,46,24,46l-4-5L17.809,44.652z" />
    <path fill="#81d4fa" d="M24 2L27 11 24 13 21 11z" />
    <path fill="#4fc3f7" d="M29 18L24 13 27 11z" />
    <path fill="#03a9f4" d="M24,2c0,0,2.526,2.895,5.504,7.122L27,11L24,2z" />
    <path fill="#81d4fa" d="M27,11l2.448-1.958l0,0c1.429,2.024,2.963,4.36,4.377,6.833L27,11z" />
    <path fill="#4fc3f7" d="M34 16.183c1.027 1.818 1.982 3.704 2.778 5.595L34 24V16.183zM21 11L24 13 19 18z" />
    <path fill="#81d4fa" d="M29 18L34 24 31 28z" />
    <path fill="#03a9f4" d="M34,24l2.778-2.222l0,0c1.009,2.399,1.76,4.8,2.067,7.067L34,24z" />
    <path fill="#81d4fa" d="M31 28L34 34 29 36z" />
    <path fill="#03a9f4" d="M37.985,36.391L34,34l4.875-4.875C38.951,29.761,39,30.389,39,31 C39,32.903,38.631,34.716,37.985,36.391z" />
    <path fill="#81d4fa" d="M34,42.158V34l3.985,2.391C37.124,38.622,35.749,40.589,34,42.158z" />
    <path fill="#03a9f4" d="M34 34L34 42.158 28 41 29 36z" />
    <path fill="#4fc3f7" d="M30.191,44.652L28,41l6,1.158C32.87,43.171,31.59,44.016,30.191,44.652z" />
    <path fill="#81d4fa" d="M29 36L24 38 28 41z" />
    <path fill="#03a9f4" d="M30.191 44.652C28.302 45.51 26.21 46 24 46l4-5L30.191 44.652zM27 11L34 16 34 24 29 18z" />
    <path fill="#4fc3f7" d="M31 28L34 24 38.844 28.844 38.875 29.125 34 34z" />
</svg>