<svg class="fill-current w-16 h-16 -ml-6" xmlns="http://www.w3.org/2000/svg" viewBox="0 0 48 48">
    <path fill="#000" d="M34.476,24c0-5.787-4.69-10.476-10.476-10.476S13.524,18.213,13.524,24S18.213,34.476,24,34.476S34.476,29.787,34.476,24L34.476,24z" />
    <path fill="#F9F3F3" d="M24 14c-5.459.141-9.859 4.542-10 10h10V14L24 14zM24 34.002c5.459-.143 9.859-4.544 10-10.002H24V34.002L24 34.002z" />
    <path fill="#000" d="M24,35c-6.066,0-11-4.934-11-11s4.934-11,11-11s11,4.934,11,11S30.066,35,24,35z M24,15c-4.963,0-9,4.037-9,9s4.037,9,9,9c4.962,0,9-4.037,9-9S28.962,15,24,15z" />
</svg>