<svg viewBox="0 0 40 40">
    <path fill="#dff0fe" d="M18,6c-0.98,0.212-1.311,0.316-2,1c-0.689,0.683-2.106,2.841-2,6c0,4-1.03,6.05-2,7c0,0,1.03,0,2,0 c1.48-1.07,3.741-3.006,6.473-3c1.97,0.005,4.184,1.055,6.527,4c2.09-1.543,4.119-2.034,6-2c2.268,0.041,4.32,1.013,6,4 c0,8.55-0.018,16-7,16c-1.941-2.85-2.077-3-3-3c-1.941,0-1.949,1.758-7.473,1.992c-3.319,0.141-7.645-1.493-11.527-4.343 C7.288,31.658,1.97,25.9,1,24c0-1.264,0.462-3.706,2.423-7.993C6.39,9.521,8.828,6.826,10.617,4.8C13.373,2.067,16.03,1,17,1 s6.022,0.96,6.969,1.9c0.97,0.95,0.674,1.036,0.902,2.435c0.229,1.399,0.053,1.826-0.428,2.685 c-0.167,0.297-0.698,0.889-1.163,0.495c-0.266,0.461-1.295,0.755-1.677,0.116c-0.366,0.592-1.396,0.329-1.627-0.096 c-0.366,0.561-1.163-0.065-1.413-0.312C18,7.462,18,6,18,6z" />
    <path fill="#b6dcfe" d="M37,37c-1.899-4.764-5.923-6.022-5.923-10.967c0-2.033,3.72-2.802,6.868-3.022 C36.769,21.2,35.033,20,33,20c-1.6,0-2.989-0.023-5.134,1.56l-1.053,0.777l-0.001-0.002c-0.007,0.006-0.014,0.011-0.021,0.016 c0,0,2.209,1.868,2.209,6.648c-0.001,3.332-2.36,5.827-7.643,5.929c0,0-1.611-0.021-4.261-0.663 c-4.706-1.826-7.159-5.261-9.228-7.17C3.193,22.141,5.253,18.505,7,14c0.826-2.131,2.399-5.524,3-7c-1.494,1.843-3.374,4.637-5,8 c-1.9,3.929-3,6.912-3,9c0.932,1.636,5.921,6.888,8.678,8.912C14.164,35.472,18.023,37,21,37c0.116,0,0.231-0.002,0.344-0.007 c3.068-0.13,4.026-0.445,5.024-1.062C27.109,35.473,27.876,35,29,35c1.945,0,2.595,2.308,3,3C33.11,38.835,36.299,37.897,37,37z" />
    <path fill="#b6dcfe" d="M21,31c0,0-7.126-4.033-4.377-9.1c0.701-1.373,2.346-3.302,3.312-3.857 c-1.884,0.208-3.564,1.443-4.817,2.375c-0.187,0.139-0.364,0.271-0.532,0.392L14.324,21H14h-2h-1C11.286,23.415,13.293,28.906,21,31 z" />
    <path fill="#4788c7" d="M17,2c1.041,0,5.622,0.998,6.269,1.615c0.508,0.497,0.508,0.497,0.576,1.091 c0.025,0.214,0.054,0.47,0.107,0.791c0.167,1.021,0.071,1.223-0.351,1.98l-0.588-0.499L22.446,7.96 c-0.017,0.009-0.039,0.019-0.064,0.026l-0.765-1.279l-0.779,1.26c-0.014-0.004-0.028-0.008-0.04-0.012l-0.746-1.366l-0.669,1.025 c-0.019-0.015-0.038-0.03-0.056-0.046C19.107,7.202,19.002,6.432,19,6V4.761l-1.211,0.262c-1.128,0.244-1.636,0.416-2.493,1.267 C14.39,7.188,13,10,13,13c0.116,3.515-1.061,5.66-1.7,6.285L9.549,21H12h2h0.324l0.262-0.19c0.168-0.121,0.345-0.253,0.532-0.392 C16.489,19.398,18.367,18,20.47,18c1.904,0.005,3.838,1.223,5.747,3.623l0.601,0.755l0.776-0.573 c1.646-1.215,3.355-1.806,5.225-1.806L32.982,20c2.153,0.039,3.71,1.05,5.018,3.267c-0.006,8.855-0.324,14.378-5.483,14.716 C30.801,35.469,30.405,35,29,35c-1,0-1.649,0.362-2.277,0.712c-0.917,0.511-2.058,1.146-5.238,1.281 C21.367,36.998,21.247,37,21.126,37c-3.05,0-6.988-1.554-10.534-4.157c-2.567-1.885-7.452-7.19-8.585-9.09 c0.053-1.046,0.458-3.248,2.326-7.33c2.845-6.218,5.202-8.887,6.923-10.835l0.089-0.101C14.035,2.827,16.43,2,17,2 M17,1 c-0.97,0-3.627,1.067-6.383,3.8C8.828,6.826,6.39,9.521,3.423,16.007C1.462,20.294,1,22.736,1,24c0.97,1.9,6.288,7.658,9,9.649 C13.727,36.385,17.864,38,21.126,38c0.135,0,0.269-0.003,0.402-0.008C27.051,37.758,27.059,36,29,36c0.923,0,1.059,0.15,3,3 c6.982,0,7-7.45,7-16c-1.68-2.987-3.732-3.959-6-4c-0.06-0.001-0.121-0.002-0.181-0.002c-1.829,0-3.796,0.508-5.819,2.002 c-2.343-2.945-4.558-3.995-6.527-4c-0.005,0-0.009,0-0.014,0c-2.725,0-4.981,1.932-6.459,3c-0.97,0-2,0-2,0 c0.97-0.95,2.119-3.391,2-7c-0.106-3.159,1.311-5.317,2-6c0.689-0.684,1.02-0.788,2-1c0,0,0,1.462,0.563,2.224 c0.177,0.175,0.627,0.538,1.005,0.538c0.157,0,0.301-0.062,0.408-0.227c0.135,0.248,0.542,0.441,0.931,0.441 c0.277,0,0.545-0.098,0.697-0.345C21.761,8.895,22.028,9,22.307,9c0.397,0,0.817-0.213,0.974-0.484 c0.11,0.093,0.223,0.131,0.335,0.131c0.361,0,0.7-0.399,0.828-0.626c0.48-0.86,0.657-1.286,0.428-2.685 C24.643,3.936,24.939,3.85,23.969,2.9C23.022,1.96,17.97,1,17,1L17,1z" />
</svg>