<svg class="fill-current" viewBox="0 0 48 48">
    <path fill="#F9F3F3" d="M5.93,25.041c0,0,8.06-11.041,18.004-11.041S41.93,25.041,41.93,25.041S33.879,36,23.934,36S5.93,25.041,5.93,25.041z" />
    <path d="M23.934,14c9.945,0,17.996,11.041,17.996,11.041S33.879,36,23.934,36S5.93,25.041,5.93,25.041S13.989,14,23.934,14 M23.934,12C13.098,12,4.668,23.377,4.314,23.862L3.45,25.046l0.868,1.18C4.672,26.707,13.102,38,23.934,38c10.833,0,19.254-11.294,19.607-11.774l0.867-1.18l-0.862-1.183C43.192,23.378,34.771,12,23.934,12L23.934,12z" />
    <path d="M14.935,24.994c0-4.971,4.034-8.994,9-8.994c4.968,0,9,4.023,9,8.994c0,4.977-4.032,9.006-9,9.006C18.968,34,14.935,29.971,14.935,24.994z" />
    <path d="M19.935,24.999c0-2.213,1.786-3.999,4-3.999c2.204,0,4,1.786,4,3.999c0,2.22-1.796,4.001-4,4.001C21.721,29,19.935,27.219,19.935,24.999z" />
</svg>